<svg width="500" height="500" viewBox="0 0 500 500" fill="none" xmlns="http://www.w3.org/2000/svg">
<path d="M151.904 159.966C151.904 155.181 152.816 150.68 154.639 146.465C156.462 142.135 158.968 138.433 162.158 135.356C165.348 132.166 169.051 129.66 173.267 127.837C177.596 125.9 182.153 124.932 186.938 124.932H319.897C324.683 124.932 329.183 125.9 333.398 127.837C337.728 129.66 341.488 132.166 344.678 135.356C347.868 138.433 350.374 142.135 352.197 146.465C354.02 150.68 354.932 155.181 354.932 159.966V191.582H319.897V159.966H186.938V334.966H319.897V303.521H354.932V334.966C354.932 339.751 354.02 344.308 352.197 348.638C350.374 352.853 347.868 356.556 344.678 359.746C341.488 362.936 337.728 365.443 333.398 367.266C329.183 369.089 324.683 370 319.897 370H186.938C182.153 370 177.596 369.089 173.267 367.266C169.051 365.443 165.348 362.936 162.158 359.746C158.968 356.556 156.462 352.853 154.639 348.638C152.816 344.308 151.904 339.751 151.904 334.966V159.966Z" fill="#F52277"/>
</svg>
